<svg width="0" height="0" class="hidden">
  <symbol fill="none" xmlns="http://www.w3.org/2000/svg" viewBox="0 0 24 24" id="lupa">
    <path d="M11 19C15.4183 19 19 15.4183 19 11C19 6.58172 15.4183 3 11 3C6.58172 3 3 6.58172 3 11C3 15.4183 6.58172 19 11 19Z" stroke="white" stroke-width="2" stroke-linecap="round" stroke-linejoin="round"></path>
    <path d="M21 20.9999L16.65 16.6499" stroke="white" stroke-width="2" stroke-linecap="round" stroke-linejoin="round"></path>
  </symbol>

  <symbol fill="none" xmlns="http://www.w3.org/2000/svg" viewBox="0 0 24 24" id="facebook">
    <path d="M18 2H15C13.6739 2 12.4021 2.52678 11.4645 3.46447C10.5268 4.40215 10 5.67392 10 7V10H7V14H10V22H14V14H17L18 10H14V7C14 6.73478 14.1054 6.48043 14.2929 6.29289C14.4804 6.10536 14.7348 6 15 6H18V2Z" stroke="#41EAD4" stroke-width="2" stroke-linecap="round" stroke-linejoin="round"></path>
  </symbol>

  <symbol fill="none" xmlns="http://www.w3.org/2000/svg" viewBox="0 0 24 24" id="instagram">
    <path d="M17 2H7C4.23858 2 2 4.23858 2 7V17C2 19.7614 4.23858 22 7 22H17C19.7614 22 22 19.7614 22 17V7C22 4.23858 19.7614 2 17 2Z" stroke="#41EAD4" stroke-width="2" stroke-linecap="round" stroke-linejoin="round"></path>
    <path d="M16 11.3701C16.1234 12.2023 15.9813 13.0523 15.5938 13.7991C15.2063 14.5459 14.5932 15.1515 13.8416 15.5297C13.0901 15.908 12.2385 16.0397 11.4078 15.906C10.5771 15.7723 9.80977 15.3801 9.21485 14.7852C8.61993 14.1903 8.22774 13.4229 8.09408 12.5923C7.96042 11.7616 8.09208 10.91 8.47034 10.1584C8.8486 9.40691 9.4542 8.7938 10.201 8.4063C10.9478 8.0188 11.7978 7.87665 12.63 8.00006C13.4789 8.12594 14.2649 8.52152 14.8717 9.12836C15.4785 9.73521 15.8741 10.5211 16 11.3701Z" stroke="#41EAD4" stroke-width="2" stroke-linecap="round" stroke-linejoin="round"></path>
  </symbol>


  <symbol fill="none" xmlns="http://www.w3.org/2000/svg" viewBox="0 0 24 20" id="twitter">
    <path d="M23 1.00005C22.0424 1.67552 20.9821 2.19216 19.86 2.53005C19.2577 1.83756 18.4573 1.34674 17.567 1.12397C16.6767 0.901206 15.7395 0.957242 14.8821 1.2845C14.0247 1.61176 13.2884 2.19445 12.773 2.95376C12.2575 3.71308 11.9877 4.61238 12 5.53005V6.53005C10.2426 6.57561 8.50127 6.18586 6.93101 5.39549C5.36074 4.60513 4.01032 3.43868 3 2.00005C3 2.00005 -1 11 8 15C5.94053 16.398 3.48716 17.099 1 17C10 22 21 17 21 5.50005C20.9991 5.2215 20.9723 4.94364 20.92 4.67005C21.9406 3.66354 22.6608 2.39276 23 1.00005V1.00005Z" stroke="#41EAD4" stroke-width="2" stroke-linecap="round" stroke-linejoin="round"></path>
  </symbol>



</svg>