<svg width="0" height="0" class="hidden">
  <symbol fill="none" xmlns="http://www.w3.org/2000/svg" viewBox="0 0 24 24" id="lupa">
    <path d="M11 19C15.4183 19 19 15.4183 19 11C19 6.58172 15.4183 3 11 3C6.58172 3 3 6.58172 3 11C3 15.4183 6.58172 19 11 19Z" stroke="white" stroke-width="2" stroke-linecap="round" stroke-linejoin="round"></path>
    <path d="M21 20.9999L16.65 16.6499" stroke="white" stroke-width="2" stroke-linecap="round" stroke-linejoin="round"></path>
  </symbol>

  <symbol fill="none" xmlns="http://www.w3.org/2000/svg" viewBox="0 0 24 24" id="facebook">
    <path d="M18 2H15C13.6739 2 12.4021 2.52678 11.4645 3.46447C10.5268 4.40215 10 5.67392 10 7V10H7V14H10V22H14V14H17L18 10H14V7C14 6.73478 14.1054 6.48043 14.2929 6.29289C14.4804 6.10536 14.7348 6 15 6H18V2Z" stroke="#41EAD4" stroke-width="2" stroke-linecap="round" stroke-linejoin="round"></path>
  </symbol>

  <symbol fill="none" xmlns="http://www.w3.org/2000/svg" viewBox="0 0 24 24" id="instagram">
    <path d="M17 2H7C4.23858 2 2 4.23858 2 7V17C2 19.7614 4.23858 22 7 22H17C19.7614 22 22 19.7614 22 17V7C22 4.23858 19.7614 2 17 2Z" stroke="#41EAD4" stroke-width="2" stroke-linecap="round" stroke-linejoin="round"></path>
    <path d="M16 11.3701C16.1234 12.2023 15.9813 13.0523 15.5938 13.7991C15.2063 14.5459 14.5932 15.1515 13.8416 15.5297C13.0901 15.908 12.2385 16.0397 11.4078 15.906C10.5771 15.7723 9.80977 15.3801 9.21485 14.7852C8.61993 14.1903 8.22774 13.4229 8.09408 12.5923C7.96042 11.7616 8.09208 10.91 8.47034 10.1584C8.8486 9.40691 9.4542 8.7938 10.201 8.4063C10.9478 8.0188 11.7978 7.87665 12.63 8.00006C13.4789 8.12594 14.2649 8.52152 14.8717 9.12836C15.4785 9.73521 15.8741 10.5211 16 11.3701Z" stroke="#41EAD4" stroke-width="2" stroke-linecap="round" stroke-linejoin="round"></path>
  </symbol>


  <symbol fill="none" xmlns="http://www.w3.org/2000/svg" viewBox="0 0 24 20" id="twitter">
    <path d="M23 1.00005C22.0424 1.67552 20.9821 2.19216 19.86 2.53005C19.2577 1.83756 18.4573 1.34674 17.567 1.12397C16.6767 0.901206 15.7395 0.957242 14.8821 1.2845C14.0247 1.61176 13.2884 2.19445 12.773 2.95376C12.2575 3.71308 11.9877 4.61238 12 5.53005V6.53005C10.2426 6.57561 8.50127 6.18586 6.93101 5.39549C5.36074 4.60513 4.01032 3.43868 3 2.00005C3 2.00005 -1 11 8 15C5.94053 16.398 3.48716 17.099 1 17C10 22 21 17 21 5.50005C20.9991 5.2215 20.9723 4.94364 20.92 4.67005C21.9406 3.66354 22.6608 2.39276 23 1.00005V1.00005Z" stroke="#41EAD4" stroke-width="2" stroke-linecap="round" stroke-linejoin="round"></path>
  </symbol>

  <symbol fill="none" xmlns="http://www.w3.org/2000/svg" overflow="visible" id="cross" >
    <path d="M18 6L6 18" stroke="#41EAD4" stroke-width="2" stroke-linecap="round" stroke-linejoin="round"></path>
    <path d="M6 6L18 18" stroke="#41EAD4" stroke-width="2" stroke-linecap="round" stroke-linejoin="round"></path>
  </symbol>

  <symbol fill="none" xmlns="http://www.w3.org/2000/svg" viewBox="0 0 230 230" id="Dots">
    <circle cx="5" cy="125" r="5" fill="#41EAD4"></circle>
    <circle cx="25" cy="125" r="5" fill="#41EAD4"></circle>
    <circle cx="45" cy="125" r="5" fill="#41EAD4"></circle>
    <circle cx="65" cy="125" r="5" fill="#41EAD4"></circle>
    <circle cx="85" cy="125" r="5" fill="#41EAD4"></circle>
    <circle cx="105" cy="125" r="5" fill="#41EAD4"></circle>
    <circle cx="5" cy="145" r="5" fill="#41EAD4"></circle>
    <circle cx="25" cy="145" r="5" fill="#41EAD4"></circle>
    <circle cx="45" cy="145" r="5" fill="#41EAD4"></circle>
    <circle cx="65" cy="145" r="5" fill="#41EAD4"></circle>
    <circle cx="85" cy="145" r="5" fill="#41EAD4"></circle>
    <circle cx="105" cy="145" r="5" fill="#41EAD4"></circle>
    <circle cx="5" cy="165" r="5" fill="#41EAD4"></circle>
    <circle cx="25" cy="165" r="5" fill="#41EAD4"></circle>
    <circle cx="45" cy="165" r="5" fill="#41EAD4"></circle>
    <circle cx="65" cy="165" r="5" fill="#41EAD4"></circle>
    <circle cx="85" cy="165" r="5" fill="#41EAD4"></circle>
    <circle cx="105" cy="165" r="5" fill="#41EAD4"></circle>
    <circle cx="5" cy="185" r="5" fill="#41EAD4"></circle>
    <circle cx="25" cy="185" r="5" fill="#41EAD4"></circle>
    <circle cx="45" cy="185" r="5" fill="#41EAD4"></circle>
    <circle cx="65" cy="185" r="5" fill="#41EAD4"></circle>
    <circle cx="85" cy="185" r="5" fill="#41EAD4"></circle>
    <circle cx="105" cy="185" r="5" fill="#41EAD4"></circle>
    <circle cx="5" cy="205" r="5" fill="#41EAD4"></circle>
    <circle cx="25" cy="205" r="5" fill="#41EAD4"></circle>
    <circle cx="45" cy="205" r="5" fill="#41EAD4"></circle>
    <circle cx="65" cy="205" r="5" fill="#41EAD4"></circle>
    <circle cx="85" cy="205" r="5" fill="#41EAD4"></circle>
    <circle cx="105" cy="205" r="5" fill="#41EAD4"></circle>
    <circle cx="5" cy="225" r="5" fill="#41EAD4"></circle>
    <circle cx="25" cy="225" r="5" fill="#41EAD4"></circle>
    <circle cx="45" cy="225" r="5" fill="#41EAD4"></circle>
    <circle cx="65" cy="225" r="5" fill="#41EAD4"></circle>
    <circle cx="85" cy="225" r="5" fill="#41EAD4"></circle>
    <circle cx="105" cy="225" r="5" fill="#41EAD4"></circle>
    <circle cx="5" cy="5" r="5" fill="#41EAD4"></circle>
    <circle cx="25" cy="5" r="5" fill="#41EAD4"></circle>
    <circle cx="45" cy="5" r="5" fill="#41EAD4"></circle>
    <circle cx="65" cy="5" r="5" fill="#41EAD4"></circle>
    <circle cx="85" cy="5" r="5" fill="#41EAD4"></circle>
    <circle cx="105" cy="5" r="5" fill="#41EAD4"></circle>
    <circle cx="5" cy="25" r="5" fill="#41EAD4"></circle>
    <circle cx="25" cy="25" r="5" fill="#41EAD4"></circle>
    <circle cx="45" cy="25" r="5" fill="#41EAD4"></circle>
    <circle cx="65" cy="25" r="5" fill="#41EAD4"></circle>
    <circle cx="85" cy="25" r="5" fill="#41EAD4"></circle>
    <circle cx="105" cy="25" r="5" fill="#41EAD4"></circle>
    <circle cx="5" cy="45" r="5" fill="#41EAD4"></circle>
    <circle cx="25" cy="45" r="5" fill="#41EAD4"></circle>
    <circle cx="45" cy="45" r="5" fill="#41EAD4"></circle>
    <circle cx="65" cy="45" r="5" fill="#41EAD4"></circle>
    <circle cx="85" cy="45" r="5" fill="#41EAD4"></circle>
    <circle cx="105" cy="45" r="5" fill="#41EAD4"></circle>
    <circle cx="5" cy="65" r="5" fill="#41EAD4"></circle>
    <circle cx="25" cy="65" r="5" fill="#41EAD4"></circle>
    <circle cx="45" cy="65" r="5" fill="#41EAD4"></circle>
    <circle cx="65" cy="65" r="5" fill="#41EAD4"></circle>
    <circle cx="85" cy="65" r="5" fill="#41EAD4"></circle>
    <circle cx="105" cy="65" r="5" fill="#41EAD4"></circle>
    <circle cx="5" cy="85" r="5" fill="#41EAD4"></circle>
    <circle cx="25" cy="85" r="5" fill="#41EAD4"></circle>
    <circle cx="45" cy="85" r="5" fill="#41EAD4"></circle>
    <circle cx="65" cy="85" r="5" fill="#41EAD4"></circle>
    <circle cx="85" cy="85" r="5" fill="#41EAD4"></circle>
    <circle cx="105" cy="85" r="5" fill="#41EAD4"></circle>
    <circle cx="5" cy="105" r="5" fill="#41EAD4"></circle>
    <circle cx="25" cy="105" r="5" fill="#41EAD4"></circle>
    <circle cx="45" cy="105" r="5" fill="#41EAD4"></circle>
    <circle cx="65" cy="105" r="5" fill="#41EAD4"></circle>
    <circle cx="85" cy="105" r="5" fill="#41EAD4"></circle>
    <circle cx="105" cy="105" r="5" fill="#41EAD4"></circle>
    <circle cx="125" cy="125" r="5" fill="#41EAD4"></circle>
    <circle cx="145" cy="125" r="5" fill="#41EAD4"></circle>
    <circle cx="165" cy="125" r="5" fill="#41EAD4"></circle>
    <circle cx="185" cy="125" r="5" fill="#41EAD4"></circle>
    <circle cx="205" cy="125" r="5" fill="#41EAD4"></circle>
    <circle cx="225" cy="125" r="5" fill="#41EAD4"></circle>
    <circle cx="125" cy="145" r="5" fill="#41EAD4"></circle>
    <circle cx="145" cy="145" r="5" fill="#41EAD4"></circle>
    <circle cx="165" cy="145" r="5" fill="#41EAD4"></circle>
    <circle cx="185" cy="145" r="5" fill="#41EAD4"></circle>
    <circle cx="205" cy="145" r="5" fill="#41EAD4"></circle>
    <circle cx="225" cy="145" r="5" fill="#41EAD4"></circle>
    <circle cx="125" cy="165" r="5" fill="#41EAD4"></circle>
    <circle cx="145" cy="165" r="5" fill="#41EAD4"></circle>
    <circle cx="165" cy="165" r="5" fill="#41EAD4"></circle>
    <circle cx="185" cy="165" r="5" fill="#41EAD4"></circle>
    <circle cx="205" cy="165" r="5" fill="#41EAD4"></circle>
    <circle cx="225" cy="165" r="5" fill="#41EAD4"></circle>
    <circle cx="125" cy="185" r="5" fill="#41EAD4"></circle>
    <circle cx="145" cy="185" r="5" fill="#41EAD4"></circle>
    <circle cx="165" cy="185" r="5" fill="#41EAD4"></circle>
    <circle cx="185" cy="185" r="5" fill="#41EAD4"></circle>
    <circle cx="205" cy="185" r="5" fill="#41EAD4"></circle>
    <circle cx="225" cy="185" r="5" fill="#41EAD4"></circle>
    <circle cx="125" cy="205" r="5" fill="#41EAD4"></circle>
    <circle cx="145" cy="205" r="5" fill="#41EAD4"></circle>
    <circle cx="165" cy="205" r="5" fill="#41EAD4"></circle>
    <circle cx="185" cy="205" r="5" fill="#41EAD4"></circle>
    <circle cx="205" cy="205" r="5" fill="#41EAD4"></circle>
    <circle cx="225" cy="205" r="5" fill="#41EAD4"></circle>
    <circle cx="125" cy="225" r="5" fill="#41EAD4"></circle>
    <circle cx="145" cy="225" r="5" fill="#41EAD4"></circle>
    <circle cx="165" cy="225" r="5" fill="#41EAD4"></circle>
    <circle cx="185" cy="225" r="5" fill="#41EAD4"></circle>
    <circle cx="205" cy="225" r="5" fill="#41EAD4"></circle>
    <circle cx="225" cy="225" r="5" fill="#41EAD4"></circle>
  </symbol>


  <symbol fill="none" xmlns="http://www.w3.org/2000/svg" overflow="visible" id="arrow-next">
    <path d="M5 12L19 12" stroke="white" stroke-width="2" stroke-linecap="round" stroke-linejoin="round"></path>
    <path d="M12 19L19 12L12 5" stroke="white" stroke-width="2" stroke-linecap="round" stroke-linejoin="round"></path>
  </symbol>
  <symbol fill="none" xmlns="http://www.w3.org/2000/svg" overflow="visible" id="arrow-down">
    <path d="M19 12L5 12" stroke="white" stroke-width="2" stroke-linecap="round" stroke-linejoin="round"></path>
    <path d="M12 19L5 12L12 5" stroke="white" stroke-width="2" stroke-linecap="round" stroke-linejoin="round"></path>
  </symbol>

  <symbol fill="none" xmlns="http://www.w3.org/2000/svg" viewBox="0 0 70 470" id="Dots2">
    <circle cx="5" cy="5" r="5" transform="matrix(-1 0 0 1 70 120)" fill="#41EAD4"></circle>
    <circle cx="5" cy="5" r="5" transform="matrix(-1 0 0 1 50 120)" fill="#41EAD4"></circle>
    <circle cx="5" cy="5" r="5" transform="matrix(-1 0 0 1 30 120)" fill="#41EAD4"></circle>
    <circle cx="5" cy="5" r="5" transform="matrix(-1 0 0 1 10 120)" fill="#41EAD4"></circle>
    <circle cx="5" cy="5" r="5" transform="matrix(-1 0 0 1 70 140)" fill="#41EAD4"></circle>
    <circle cx="5" cy="5" r="5" transform="matrix(-1 0 0 1 50 140)" fill="#41EAD4"></circle>
    <circle cx="5" cy="5" r="5" transform="matrix(-1 0 0 1 30 140)" fill="#41EAD4"></circle>
    <circle cx="5" cy="5" r="5" transform="matrix(-1 0 0 1 10 140)" fill="#41EAD4"></circle>
    <circle cx="5" cy="5" r="5" transform="matrix(-1 0 0 1 70 160)" fill="#41EAD4"></circle>
    <circle cx="5" cy="5" r="5" transform="matrix(-1 0 0 1 50 160)" fill="#41EAD4"></circle>
    <circle cx="5" cy="5" r="5" transform="matrix(-1 0 0 1 30 160)" fill="#41EAD4"></circle>
    <circle cx="5" cy="5" r="5" transform="matrix(-1 0 0 1 10 160)" fill="#41EAD4"></circle>
    <circle cx="5" cy="5" r="5" transform="matrix(-1 0 0 1 70 180)" fill="#41EAD4"></circle>
    <circle cx="5" cy="5" r="5" transform="matrix(-1 0 0 1 50 180)" fill="#41EAD4"></circle>
    <circle cx="5" cy="5" r="5" transform="matrix(-1 0 0 1 30 180)" fill="#41EAD4"></circle>
    <circle cx="5" cy="5" r="5" transform="matrix(-1 0 0 1 10 180)" fill="#41EAD4"></circle>
    <circle cx="5" cy="5" r="5" transform="matrix(-1 0 0 1 70 200)" fill="#41EAD4"></circle>
    <circle cx="5" cy="5" r="5" transform="matrix(-1 0 0 1 50 200)" fill="#41EAD4"></circle>
    <circle cx="5" cy="5" r="5" transform="matrix(-1 0 0 1 30 200)" fill="#41EAD4"></circle>
    <circle cx="5" cy="5" r="5" transform="matrix(-1 0 0 1 10 200)" fill="#41EAD4"></circle>
    <circle cx="5" cy="5" r="5" transform="matrix(-1 0 0 1 70 220)" fill="#41EAD4"></circle>
    <circle cx="5" cy="5" r="5" transform="matrix(-1 0 0 1 50 220)" fill="#41EAD4"></circle>
    <circle cx="5" cy="5" r="5" transform="matrix(-1 0 0 1 30 220)" fill="#41EAD4"></circle>
    <circle cx="5" cy="5" r="5" transform="matrix(-1 0 0 1 10 220)" fill="#41EAD4"></circle>
    <circle cx="5" cy="5" r="5" transform="matrix(-1 0 0 1 70 0)" fill="#41EAD4"></circle>
    <circle cx="5" cy="5" r="5" transform="matrix(-1 0 0 1 50 0)" fill="#41EAD4"></circle>
    <circle cx="5" cy="5" r="5" transform="matrix(-1 0 0 1 30 0)" fill="#41EAD4"></circle>
    <circle cx="5" cy="5" r="5" transform="matrix(-1 0 0 1 10 0)" fill="#41EAD4"></circle>
    <circle cx="5" cy="5" r="5" transform="matrix(-1 0 0 1 70 20)" fill="#41EAD4"></circle>
    <circle cx="5" cy="5" r="5" transform="matrix(-1 0 0 1 50 20)" fill="#41EAD4"></circle>
    <circle cx="5" cy="5" r="5" transform="matrix(-1 0 0 1 30 20)" fill="#41EAD4"></circle>
    <circle cx="5" cy="5" r="5" transform="matrix(-1 0 0 1 10 20)" fill="#41EAD4"></circle>
    <circle cx="5" cy="5" r="5" transform="matrix(-1 0 0 1 70 40)" fill="#41EAD4"></circle>
    <circle cx="5" cy="5" r="5" transform="matrix(-1 0 0 1 50 40)" fill="#41EAD4"></circle>
    <circle cx="5" cy="5" r="5" transform="matrix(-1 0 0 1 30 40)" fill="#41EAD4"></circle>
    <circle cx="5" cy="5" r="5" transform="matrix(-1 0 0 1 10 40)" fill="#41EAD4"></circle>
    <circle cx="5" cy="5" r="5" transform="matrix(-1 0 0 1 70 60)" fill="#41EAD4"></circle>
    <circle cx="5" cy="5" r="5" transform="matrix(-1 0 0 1 50 60)" fill="#41EAD4"></circle>
    <circle cx="5" cy="5" r="5" transform="matrix(-1 0 0 1 30 60)" fill="#41EAD4"></circle>
    <circle cx="5" cy="5" r="5" transform="matrix(-1 0 0 1 10 60)" fill="#41EAD4"></circle>
    <circle cx="5" cy="5" r="5" transform="matrix(-1 0 0 1 70 80)" fill="#41EAD4"></circle>
    <circle cx="5" cy="5" r="5" transform="matrix(-1 0 0 1 50 80)" fill="#41EAD4"></circle>
    <circle cx="5" cy="5" r="5" transform="matrix(-1 0 0 1 30 80)" fill="#41EAD4"></circle>
    <circle cx="5" cy="5" r="5" transform="matrix(-1 0 0 1 10 80)" fill="#41EAD4"></circle>
    <circle cx="5" cy="5" r="5" transform="matrix(-1 0 0 1 70 100)" fill="#41EAD4"></circle>
    <circle cx="5" cy="5" r="5" transform="matrix(-1 0 0 1 50 100)" fill="#41EAD4"></circle>
    <circle cx="5" cy="5" r="5" transform="matrix(-1 0 0 1 30 100)" fill="#41EAD4"></circle>
    <circle cx="5" cy="5" r="5" transform="matrix(-1 0 0 1 10 100)" fill="#41EAD4"></circle>
    <circle cx="5" cy="5" r="5" transform="matrix(-1 0 0 1 70 240)" fill="#41EAD4"></circle>
    <circle cx="5" cy="5" r="5" transform="matrix(-1 0 0 1 50 240)" fill="#41EAD4"></circle>
    <circle cx="5" cy="5" r="5" transform="matrix(-1 0 0 1 30 240)" fill="#41EAD4"></circle>
    <circle cx="5" cy="5" r="5" transform="matrix(-1 0 0 1 10 240)" fill="#41EAD4"></circle>
    <circle cx="5" cy="5" r="5" transform="matrix(-1 0 0 1 70 260)" fill="#41EAD4"></circle>
    <circle cx="5" cy="5" r="5" transform="matrix(-1 0 0 1 50 260)" fill="#41EAD4"></circle>
    <circle cx="5" cy="5" r="5" transform="matrix(-1 0 0 1 30 260)" fill="#41EAD4"></circle>
    <circle cx="5" cy="5" r="5" transform="matrix(-1 0 0 1 10 260)" fill="#41EAD4"></circle>
    <circle cx="5" cy="5" r="5" transform="matrix(-1 0 0 1 70 280)" fill="#41EAD4"></circle>
    <circle cx="5" cy="5" r="5" transform="matrix(-1 0 0 1 50 280)" fill="#41EAD4"></circle>
    <circle cx="5" cy="5" r="5" transform="matrix(-1 0 0 1 30 280)" fill="#41EAD4"></circle>
    <circle cx="5" cy="5" r="5" transform="matrix(-1 0 0 1 10 280)" fill="#41EAD4"></circle>
    <circle cx="5" cy="5" r="5" transform="matrix(-1 0 0 1 70 300)" fill="#41EAD4"></circle>
    <circle cx="5" cy="5" r="5" transform="matrix(-1 0 0 1 50 300)" fill="#41EAD4"></circle>
    <circle cx="5" cy="5" r="5" transform="matrix(-1 0 0 1 30 300)" fill="#41EAD4"></circle>
    <circle cx="5" cy="5" r="5" transform="matrix(-1 0 0 1 10 300)" fill="#41EAD4"></circle>
    <circle cx="5" cy="5" r="5" transform="matrix(-1 0 0 1 70 320)" fill="#41EAD4"></circle>
    <circle cx="5" cy="5" r="5" transform="matrix(-1 0 0 1 50 320)" fill="#41EAD4"></circle>
    <circle cx="5" cy="5" r="5" transform="matrix(-1 0 0 1 30 320)" fill="#41EAD4"></circle>
    <circle cx="5" cy="5" r="5" transform="matrix(-1 0 0 1 10 320)" fill="#41EAD4"></circle>
    <circle cx="5" cy="5" r="5" transform="matrix(-1 0 0 1 70 340)" fill="#41EAD4"></circle>
    <circle cx="5" cy="5" r="5" transform="matrix(-1 0 0 1 50 340)" fill="#41EAD4"></circle>
    <circle cx="5" cy="5" r="5" transform="matrix(-1 0 0 1 30 340)" fill="#41EAD4"></circle>
    <circle cx="5" cy="5" r="5" transform="matrix(-1 0 0 1 10 340)" fill="#41EAD4"></circle>
    <circle cx="5" cy="5" r="5" transform="matrix(-1 0 0 1 70 360)" fill="#41EAD4"></circle>
    <circle cx="5" cy="5" r="5" transform="matrix(-1 0 0 1 50 360)" fill="#41EAD4"></circle>
    <circle cx="5" cy="5" r="5" transform="matrix(-1 0 0 1 30 360)" fill="#41EAD4"></circle>
    <circle cx="5" cy="5" r="5" transform="matrix(-1 0 0 1 10 360)" fill="#41EAD4"></circle>
    <circle cx="5" cy="5" r="5" transform="matrix(-1 0 0 1 70 380)" fill="#41EAD4"></circle>
    <circle cx="5" cy="5" r="5" transform="matrix(-1 0 0 1 50 380)" fill="#41EAD4"></circle>
    <circle cx="5" cy="5" r="5" transform="matrix(-1 0 0 1 30 380)" fill="#41EAD4"></circle>
    <circle cx="5" cy="5" r="5" transform="matrix(-1 0 0 1 10 380)" fill="#41EAD4"></circle>
    <circle cx="5" cy="5" r="5" transform="matrix(-1 0 0 1 70 400)" fill="#41EAD4"></circle>
    <circle cx="5" cy="5" r="5" transform="matrix(-1 0 0 1 50 400)" fill="#41EAD4"></circle>
    <circle cx="5" cy="5" r="5" transform="matrix(-1 0 0 1 30 400)" fill="#41EAD4"></circle>
    <circle cx="5" cy="5" r="5" transform="matrix(-1 0 0 1 10 400)" fill="#41EAD4"></circle>
    <circle cx="5" cy="5" r="5" transform="matrix(-1 0 0 1 70 420)" fill="#41EAD4"></circle>
    <circle cx="5" cy="5" r="5" transform="matrix(-1 0 0 1 50 420)" fill="#41EAD4"></circle>
    <circle cx="5" cy="5" r="5" transform="matrix(-1 0 0 1 30 420)" fill="#41EAD4"></circle>
    <circle cx="5" cy="5" r="5" transform="matrix(-1 0 0 1 10 420)" fill="#41EAD4"></circle>
    <circle cx="5" cy="5" r="5" transform="matrix(-1 0 0 1 70 440)" fill="#41EAD4"></circle>
    <circle cx="5" cy="5" r="5" transform="matrix(-1 0 0 1 50 440)" fill="#41EAD4"></circle>
    <circle cx="5" cy="5" r="5" transform="matrix(-1 0 0 1 30 440)" fill="#41EAD4"></circle>
    <circle cx="5" cy="5" r="5" transform="matrix(-1 0 0 1 10 440)" fill="#41EAD4"></circle>
    <circle cx="5" cy="5" r="5" transform="matrix(-1 0 0 1 70 460)" fill="#41EAD4"></circle>
    <circle cx="5" cy="5" r="5" transform="matrix(-1 0 0 1 50 460)" fill="#41EAD4"></circle>
    <circle cx="5" cy="5" r="5" transform="matrix(-1 0 0 1 30 460)" fill="#41EAD4"></circle>
    <circle cx="5" cy="5" r="5" transform="matrix(-1 0 0 1 10 460)" fill="#41EAD4"></circle>
  </symbol>

  <symbol fill="none" xmlns="http://www.w3.org/2000/svg" viewBox="0 0 32 25" id="symbol">
    <path d="M31.7108 0L31.8072 0.191574C29.8795 1.21328 28.3052 2.71392 27.0843 4.69349C25.8635 6.6092 25.253 8.62069 25.253 10.728C25.253 11.0473 25.2851 11.3027 25.3494 11.4943C25.4779 11.622 25.6064 11.7497 25.7349 11.8774C25.9277 11.9413 26.1847 12.0051 26.506 12.069C28.1767 12.3244 29.494 13.0588 30.4578 14.272C31.4859 15.4215 32 16.8263 32 18.4866C32 20.3384 31.3574 21.9029 30.0723 23.1801C28.7872 24.3934 27.1807 25 25.253 25C23.0683 25 21.3012 24.2656 19.9518 22.7969C18.6024 21.3282 17.9277 19.3806 17.9277 16.954C17.9277 13.1226 19.2129 9.57855 21.7831 6.32184C24.3534 3.06514 27.6627 0.957857 31.7108 0ZM13.7831 0L13.8795 0.191574C11.9518 1.21328 10.3775 2.71392 9.15663 4.69349C7.93574 6.6092 7.3253 8.62069 7.3253 10.728C7.3253 11.0473 7.35743 11.3027 7.42169 11.4943C7.5502 11.622 7.67871 11.7497 7.80723 11.8774C8 11.9413 8.25703 12.0051 8.57831 12.069C10.249 12.3244 11.5663 13.0588 12.5301 14.272C13.5582 15.4215 14.0723 16.8263 14.0723 18.4866C14.0723 20.3384 13.4297 21.9029 12.1446 23.1801C10.8594 24.3934 9.25301 25 7.3253 25C5.14056 25 3.37349 24.2656 2.0241 22.7969C0.674699 21.3282 0 19.3806 0 16.954C0 13.1226 1.28514 9.57855 3.85542 6.32184C6.4257 3.06514 9.73494 0.957857 13.7831 0Z" fill="#41EAD4"></path>
  </symbol>

  <symbol fill="none" xmlns="http://www.w3.org/2000/svg" viewBox="0 0 57 8" id="Divider">
    <rect y="3" width="50" height="1" rx="0.5" fill="#41EAD4"></rect>
    <rect x="52.5857" y="0.707107" width="4" height="4" transform="rotate(45 52.5857 0.707107)" stroke="#41EAD4"></rect>
  </symbol>



</svg>